/* XPM */
static char *a8778c54d6c24b69a49f91acb6fd328cd3mACrFFOhJZifbd[] = {
/* columns rows colors chars-per-pixel */
"64 64 6 1 ",
"  c #B88B04",
". c #CD9B05",
"X c #E5AD06",
"o c #FFC107",
"O c #FFEB3B",
"+ c #8BC34A",
/* pixels */
"ooooooooooooooooooooooooooooOoooooooooooooooooooooooooooOOOooooo",
"OOOOOOOOOOooooooooooooooooooOoooooooooooooooooooooooooooOXOOOOOO",
"ooooooooooOoooooooooooooooooOoooooooooooooooooooooooooooOOOooooo",
"oooooooooooOooooooooooooooooOoooooOOOOOOOOoooooooooooooooooooooo",
"ooooooooooooOoooooooooooooooOoooooOoooooooOooooooooooooooooooooo",
"oooooooooooooOoooooooooooooooOooooOooooooooOooooooooooooOOOooooo",
"OOOOOOOoooooooOoooooooooooooooOoooOoooooooooOoooooooooooOXOOOOOO",
"oooooooOoooooooOoooooooooooooooOooOooooooooooOooooooooOOOOOooooo",
"ooooooooOoooooooOoooooooooooooooOoOoooooooooooOOOOOOOOOXOooooooo",
"oooooooooOoooooooOoooooooooooooooOOoooooooooooooooooooOOOooooooo",
"ooooooooooOoooooooOoooooooooooooooOOOOOOOOoooooooooooooooooooooo",
"oooooooooooOoooooooOooooooooooooooOoooooooOooooooooooooooooooooo",
"ooooooooooooOoooooooOoooooooooooooOooooooooOoooooooooooooooooooo",
"oooooooooooooOoooooooOooooooooooooOoooooooooOooooooooooooooooooo",
"ooooooooooooooOoooooooOoooooooooooOooooooooooOoooooooooooooooooo",
"oooooooooooooooOoooooooOooooooooooOoooooooooooOooooooooooooooooo",
"ooooooooooooooooOoooooooOoooooooooOooooooooooooOOOOOOOOOOooooooo",
"oooooooooooooooooOOOOOOOOOOOOOOOOOOOOOOOOOoooooooooooooooOoooooo",
"ooooooooooooooooooooOoooooooooooooooooooooOoooooooooooooooOooooo",
"oooooooooooooooooooOoooooooooooo..oooooooooOoooooooooooooooOoooo",
"ooooooooooooooooooOoooooooooooo....oooooooooOoooooooooooooooOooo",
"oooooooooooooooooOoooooooooooo..OO..oooooooooOoooooooooooooooOoo",
"ooooooooooooooooOoooooooooooo.....O..oooooooooOooooooooOOOooooOo",
"OOOOOOOOOOOOOOOOooooooooooooo.OOO....ooooooooooOOOOOOOOO.OoooooO",
"oooooooooooooooooooooooooooOOOOOOOOOOOOooooooooooooooooOOOoooooo",
"ooooooooooooooooooooooooooOOOOOOOOOOOOOOoooooooooooooooooooooooo",
"oooooooooooooooooooooooooOOOOOOOOOOOOOOOOooooooooooooooooooooooo",
"ooooooooooooooooooooooooOOOOOOOOOOOOOOOOOOoooooooooooooooooooOOO",
"ooooOOOoooooooooooooooooOOOO.OOOOOOOO.OOOOoooooooooooooooooooO O",
"ooooOXOOOOOOooooooooooooOOOOOOOOOOOOOOOOOOoooooooooooooooooooOOO",
"ooooOOOoooooOoooooooooooOOOOOOOOOOOOOOOOOOooooooooooooooooooOooo",
"oooooooooooooOooooooooooOOOOOO......OOOOOOoooooooooooooooooOoooo",
"ooooooooooooooOooooooooooOOOOOOOO..OOOOOOoooooooooooooooooOooooo",
"oooooooooooooooOooooooooooOOOOOOO.OOOOOOoooooooooooooooooOoooooo",
"ooooooooooooooooOooooooooooOOOOOOOOOOOOoooooooooooooooooOooooooo",
"oooooooooooooooooOoooooooooooooooooooooooooooooooooooooOoooooooo",
"ooooooooooooooooooOoooooooooooooooooooooooooooooooooooOooooooooo",
"oooooooooooooooooooOoooooooooooooooooooooooooooooooooOoooooooooo",
"ooooooooooooooooooooOoooooooooooooooooooooooooooooooOooooooooooo",
"oooooooooooooooooooooOoooooooooooooooooooooooooooooOoooooooooooo",
"oooooooooOOOooooooooooOoooooooooooooooooooooooooooOooooooooooooo",
"oooooooooOXOOOOOOOOOOOOOOOOOOOOOOOOOOOOOOOOOOOOOOOoooooooooooooo",
"oooooooooOOOoooOooooooooooooooooooooooooooooooooooOooooooooooooo",
"ooooooooooooooooOooooooooooooooooooooooooooooooooooOoooooooooooo",
"oooooooooooooooooOooooooooooooooooooooooooooooooooooOooooooooooo",
"ooooooooooooooooooOooooooooooooooooooOOOoooooooooooooOoooooooooo",
"oooooooooooooooooooOoooooooooooooooooOXOooooooooooooooOooooooooo",
"ooooooooooooooooooooOooooooooooooooooOOOoooooooooooooooOoooooooo",
"oooooooOOOOOoooooooooOooooooooooooooOoooooooooooooooooooOooooooo",
"oooooOOoooooOOooooooooOooooooooooooOoooooooooooooooooooOoooooooo",
"ooooOoooooooooOooooooooOooooooooooOoooooooooooooooooooOooooooooo",
"ooooOoooooooooOoooooooooOooooooooOoooooooooooooooooooOoooooooooo",
"oooOoooooooooooOoooooooooOooooooOoooooooooooooooooooOooooooooooo",
"oooOoooooooooooOooooooooooOooooOoooooooooooooooooooOoooooooooooo",
"oooOoooooooooooOoooooooooooOooOoooooooooooooooooooOooooooooooooo",
"oooOoooooooooooOooooooooooooOOoooooooooooooooooooOoooooooooooooo",
"oooOoooooooooooOooooooooooooooooooooooooooooooOOOooooooooooooooo",
"ooooOoooooooooOoooooooooooooooooooooooooooooooOXOooooooooooooooo",
"ooooOoooooooooOoooooooooooooooooooooooooooooooOOOooooooooooooooo",
"+++oo+Ooo+o++++o+oo+ooooooooooooooooooooooooooooo+++ooo++ooo++oo",
"+oo+o++O++O+oooo++o+ooooooooooooooooooooooooooooo+oo+o+oo+o+oo+o",
"+++oo+o+o+o+++oo+o++ooooooooooooooooooooooooooooo+++oo+oooo++++o",
"+o+oo+ooo+o+oooo+oo+ooooooooooooooooooooooooooooo+o+oo+oo+o+oo+o",
"+oo+o+ooo+o++++o+oo+ooooooooooooooooooooooooooooo+oo+oo++oo+oo+o"
};
