/* XPM */
static char *_61769b10529472099da1f6cc635e6acZN2zKi7tWPyTcUw1[] = {
/* columns rows colors chars-per-pixel */
"64 64 9 1 ",
"  c #E53935",
". c #4CAF50",
"X c #B88B04",
"o c #CD9B05",
"O c #FF9800",
"+ c #E5AD06",
"@ c #FFC107",
"# c #FFEB3B",
"$ c #8BC34A",
/* pixels */
"                            #                                   ",
"##########                  #                           ###     ",
"          #                 #                           #+######",
"           #                #     ########              ###     ",
"            #               #     #.......#                     ",
"             #               #    #........#            ###     ",
"#######       #               #   #.........#           #+######",
".......#       #               #  #..........#        #####.....",
"........#       #               # #...........#########+#.......",
".........#       #               ##...................###.......",
"..........#       #               ########......................",
"...........#       #              #.......#.....................",
"............#       #             #........#....................",
".............#       #            #.........#...................",
"..............#       #           #..........#..................",
"...............#       #          #...........#.................",
"................#       #         #............##########.......",
".................#########################...............#......",
"....................#OOOOOOOOOOOOOOOOOOOOO#...............#.....",
"...................#OOOOOOOOOOOOooOOOOOOOOO#...............#....",
"..................#OOOOOOOOOOOOooooOOOOOOOOO#...............#...",
".................#OOOOOOOOOOOOoo##ooOOOOOOOOO#...............#..",
"................#OOOOOOOOOOOOooooo#ooOOOOOOOOO#........###....#.",
"################OOOOOOOOOOOOOo###ooooOOOOOOOOOO#########o###...#",
"OOOOOOOOOOOOOOOOOOOOOOOOOOO############OOOOOOOOOOOOOOOO###O#....",
"OOOOOOOOOOOOOOOOOOOOOOOOOO##############OOOOOOOOOOOOOOOOOOOO#...",
"OOOOOOOOOOOOOOOOOOOOOOOOO################OOOOOOOOOOOOOOOOOOOO#..",
"OOOOOOOOOOOOOOOOOOOOOOOO##################OOOOOOOOOOOOOOOOOOO###",
"OOOO###OOOOOOOOOOOOOOOOO####o########o####OOOOOOOOOOOOOOOOOOO#X#",
"OOOO#+######OOOOOOOOOOOO##################OOOOOOOOOOOOOOOOOOO###",
"OOOO###OOOOO#OOOOOOOOOOO##################OOOOOOOOOOOOOOOOOO#OOO",
"OOOOOOOOOOOOO#OOOOOOOOOO######oooooo######OOOOOOOOOOOOOOOOO#OOOO",
"OOOOOOOOOOOOOO#OOOOOOOOOO########$$######OOOOOOOOOOOOOOOOO#OOOOO",
"OOOOOOOOOOOOOOO#OOOOOOOOOO#######$######OOOOOOOOOOOOOOOOO#OOOOOO",
"OOOOOOOOOOOOOOOO#OOOOOOOOOO############OOOOOOOOOOOOOOOOO#OOOOOOO",
"OOOOOOOOOOOOOOOOO#OOOOOOOOOOOOOOOOOOOOOOOOOOOOOOOOOOOOO#OOOOOOOO",
"OOOOOOOOOOOOOOOOOO#OOOOOOOOOOOOOOOOOOOOOOOOOOOOOOOOOOO#OOOOOOOOO",
"OOOOOOOOOOOOOOOOOOO#OOOOOOOOOOOOOOOOOOOOOOOOOOOOOOOOO#OOOOOOOOOO",
"OOOOOOOOOOOOOOOOOOOO#OOOOOOOOOOOOOOOOOOOOOOOOOOOOOOO#OOOOOOOOOOO",
"OOOOOOOOOOOOOOOOOOOOO#OOOOOOOOOOOOOOOOOOOOOOOOOOOOO#OOOOOOOOOOOO",
"OOOOOOOOO###OOOOOOOOOO#OOOOOOOOOOOOOOOOOOOOOOOOOOO#OOOOOOOOOOOOO",
"OOOOOOOOO#+#######################################OOOOOOOOOOOOOO",
"OOOOOOOOO###OOO#OOOOOOOOOOOOOOOOOOOOOOOOOOOOOOOOOO#OOOOOOOOOOOOO",
"OOOOOOOOOOOOOOOO#OOOOOOOOOOOOOOOOOOOOOOOOOOOOOOOOOO#OOOOOOOOOOOO",
"OOOOOOOOOOOOOOOOO#OOOOOOOOOOOOOOOOOOOOOOOOOOOOOOOOOO#OOOOOOOOOOO",
"OOOOOOOOOOOOOOOOOO#OOOOOOOOOOOOOOOOOO###OOOOOOOOOOOOO#OOOOOOOOOO",
"OOOOOOOOOOOOOOOOOOO#OOOOOOOOOOOOOOOOO#+#OOOOOOOOOOOOOO#OOOOOOOOO",
"OOOOOOOOOOOOOOOOOOOO#OOOOOOOOOOOOOOOO###OOOOOOOOOOOOOOO#OOOOOOOO",
"OOOOOOO#####OOOOOOOOO#OOOOOOOOOOOOOO#OOOOOOOOOOOOOOOOOOO#OOOOOOO",
"OOOOO##.. ..##OOOOOOOO#OOOOOOOOOOOO#OOOOOOOOOOOOOOOOOOO#OOOOOOOO",
"OOOO#.... ....#OOOOOOOO#OOOOOOOOOO#OOOOOOOOOOOOOOOOOOO#OOOOOOOOO",
"OOOO#.... ....#OOOOOOOOO#OOOOOOOO#OOOOOOOOOOOOOOOOOOO#OOOOOOOOOO",
"OOO#.....   ...#OOOOOOOOO#OOOOOO#OOOOOOOOOOOOOOOOOOO#OOOOOOOOOOO",
"OOO#..... . ...#OOOOOOOOOO#OOOO#OOOOOOOOOOOOOOOOOOO#OOOOOOOOOOOO",
"OOO#           #OOOOOOOOOOO#OO#OOOOOOOOOOOOOOOOOOO#OOOOOOOOOOOOO",
"OOO#... . .....#OOOOOOOOOOOO##OOOOOOOOOOOOOOOOOOO#OOOOOOOOOOOOOO",
"OOO#...   .....#OOOOOOOOOOOOOOOOOOOOOOOOOOOOOO###OOOOOOOOOOOOOOO",
"OOOO#.... ....#OOOOOOOOOOOOOOOOOOOOOOOOOOOOOOO#+#OOOOOOOOOOOOOOO",
"OOOO#.... ....#OOOOOOOOOOOOOOOOOOOOOOOOOOOOOOO###OOOOOOOOOOOOOOO",
"$$$OO$#..$.$$$$O$OO$OOOOOOOOOOOOOOOOOOOOOOOOOOOOO$$$OOO$$OOO$$OO",
"$OO$O$$#$$#$OOOO$$O$OOOOOOOOOOOOOOOOOOOOOOOOOOOOO$OO$O$OO$O$OO$O",
"$$$OO$O$O$@$$$OO$O$$OOOOOOOOOOOOOOOOOOOOOOOOOOOOO$$$OO$OOOO$$$$O",
"$O$OO$OOO$@$OOOO$OO$OOOOOOOOOOOOOOOOOOOOOOOOOOOOO$O$OO$OO$O$OO$O",
"$OO$O$OOO$@$$$$O$OO$OOOOOOOOOOOOOOOOOOOOOOOOOOOOO$OO$OO$$OO$OO$O"
};
